# xmcd
#
# Track frame offsets:
#	150
#	27091
#	58569
#	81938
#	103029
#	123826
#	138508
#	165666
#	179424
#	197695
#	220367
#	236409
#	251648
#	266849
#	278540
#
# Disc length: 3996
#
# Revision: 1
# Processed by: cddbd v1.5.1PL0 Copyright (c) Steve Scherf et al.
# Submitted via: WhereIsIt 3.23
# Normalized: r0:DSETVAR1
#
DISCID=d40f9a0f
DTITLE=Various Artist - Blues Story - Vol. 25 - Le Blues D'ailleur
DYEAR=1900
DGENRE=
TTITLE0=Paul Personne - Où Est L'Paradis?
TTITLE1=Patrick Verbeke - Sado-Maso Blues
TTITLE2=Jean-Jacques Milteau - Hometown
TTITLE3=Benoit Blues Boy - On Peut Plus En Trouver
TTITLE4=Nico Wayne Toussaint - Give Me A Kiss Baby
TTITLE5=Amos Garett - Don't Tell Me
TTITLE6=Colin Linden - No Rest For The Wicked
TTITLE7=Eddie Kirkland - Big City Behind The Sun
TTITLE8=Rainer and Das Combo - (Making The) Trains (Run On Time)
TTITLE9=Paul Urbana Jones - Louise
TTITLE10=The Jeff Healey Band - I'm Ready
TTITLE11=Rod and The Shotgun Blues - Changer l'Horizon
TTITLE12=Baton Rouge - Merci Blues
TTITLE13=Manu Galvin - Shake It Or Leave It
TTITLE14=Leadfoot Rivet - J'Nage En Eaux Troubles
EXTD=
EXTT0=
EXTT1=
EXTT2=
EXTT3=
EXTT4=
EXTT5=
EXTT6=
EXTT7=
EXTT8=
EXTT9=
EXTT10=
EXTT11=
EXTT12=
EXTT13=
EXTT14=
PLAYORDER=
